<svg width="796" height="188" viewBox="0 0 796 188" fill="none" xmlns="http://www.w3.org/2000/svg">
<rect width="788" height="188" fill="#142F68" fill-opacity="0.57"/>
<path d="M84.776 145.92C78.3333 145.92 72.8293 144.32 68.264 141.12C63.6987 137.877 60.2 133.504 57.768 128C55.336 122.496 54.12 116.288 54.12 109.376C54.12 102.507 55.3147 96.32 57.704 90.816C60.136 85.312 63.6133 80.96 68.136 77.76C72.6587 74.56 78.0773 72.96 84.392 72.96C90.8773 72.96 96.3387 74.5387 100.776 77.696C105.213 80.8533 108.563 85.184 110.824 90.688C113.128 96.1493 114.28 102.379 114.28 109.376C114.28 116.245 113.149 122.453 110.888 128C108.627 133.504 105.299 137.877 100.904 141.12C96.5093 144.32 91.1333 145.92 84.776 145.92ZM85.736 137.152C90.6427 137.152 94.696 135.957 97.896 133.568C101.096 131.179 103.485 127.893 105.064 123.712C106.643 119.488 107.432 114.709 107.432 109.376C107.432 103.957 106.643 99.1787 105.064 95.04C103.485 90.8587 101.096 87.5947 97.896 85.248C94.7387 82.9013 90.7493 81.728 85.928 81.728C80.9787 81.728 76.8827 82.944 73.64 85.376C70.3973 87.808 67.9867 91.1147 66.408 95.296C64.872 99.4773 64.104 104.171 64.104 109.376C64.104 114.624 64.8933 119.36 66.472 123.584C68.0933 127.765 70.504 131.072 73.704 133.504C76.904 135.936 80.9147 137.152 85.736 137.152ZM107.432 144V91.968H106.408V51.84H115.88V144H107.432ZM135.115 61.76V51.2H144.523V61.76H135.115ZM135.115 144V74.88H144.523V144H135.115ZM157.31 144V142.016L201.918 83.648H160.638V74.88H217.406V77.056L172.862 135.232H214.974V144H157.31Z" fill="black"/>
<path d="M375.114 73V55.5455H381.011C382.381 55.5455 383.5 55.7926 384.369 56.2869C385.244 56.7756 385.892 57.4375 386.312 58.2727C386.733 59.108 386.943 60.0398 386.943 61.0682C386.943 62.0966 386.733 63.0312 386.312 63.8722C385.898 64.7131 385.256 65.3835 384.386 65.8835C383.517 66.3778 382.403 66.625 381.045 66.625H376.818V64.75H380.977C381.915 64.75 382.668 64.5881 383.236 64.2642C383.804 63.9403 384.216 63.5028 384.472 62.9517C384.733 62.3949 384.864 61.767 384.864 61.0682C384.864 60.3693 384.733 59.7443 384.472 59.1932C384.216 58.642 383.801 58.2102 383.227 57.8977C382.653 57.5795 381.892 57.4205 380.943 57.4205H377.227V73H375.114ZM395.423 73.2727C394.162 73.2727 393.074 72.9943 392.159 72.4375C391.25 71.875 390.548 71.0909 390.054 70.0852C389.565 69.0739 389.321 67.8977 389.321 66.5568C389.321 65.2159 389.565 64.0341 390.054 63.0114C390.548 61.983 391.236 61.1818 392.116 60.608C393.003 60.0284 394.037 59.7386 395.219 59.7386C395.901 59.7386 396.574 59.8523 397.239 60.0795C397.903 60.3068 398.509 60.6761 399.054 61.1875C399.599 61.6932 400.034 62.3636 400.358 63.1989C400.682 64.0341 400.844 65.0625 400.844 66.2841V67.1364H390.753V65.3977H398.798C398.798 64.6591 398.651 64 398.355 63.4205C398.065 62.8409 397.651 62.3835 397.111 62.0483C396.577 61.7131 395.946 61.5455 395.219 61.5455C394.418 61.5455 393.724 61.7443 393.139 62.142C392.56 62.5341 392.114 63.0455 391.801 63.6761C391.489 64.3068 391.332 64.983 391.332 65.7045V66.8636C391.332 67.8523 391.503 68.6903 391.844 69.3778C392.19 70.0597 392.67 70.5795 393.284 70.9375C393.898 71.2898 394.611 71.4659 395.423 71.4659C395.952 71.4659 396.429 71.392 396.855 71.2443C397.287 71.0909 397.659 70.8636 397.972 70.5625C398.284 70.2557 398.526 69.875 398.696 69.4205L400.639 69.9659C400.435 70.625 400.091 71.2045 399.608 71.7045C399.125 72.1989 398.528 72.5852 397.818 72.8636C397.108 73.1364 396.31 73.2727 395.423 73.2727ZM403.903 73V59.9091H405.847V61.8864H405.983C406.222 61.2386 406.653 60.7131 407.278 60.3097C407.903 59.9062 408.608 59.7045 409.392 59.7045C409.54 59.7045 409.724 59.7074 409.946 59.7131C410.168 59.7187 410.335 59.7273 410.449 59.7386V61.7841C410.381 61.767 410.224 61.7415 409.98 61.7074C409.741 61.6676 409.489 61.6477 409.222 61.6477C408.585 61.6477 408.017 61.7812 407.517 62.0483C407.023 62.3097 406.631 62.6733 406.341 63.1392C406.057 63.5994 405.915 64.125 405.915 64.7159V73H403.903ZM419.483 59.9091V61.6136H412.426V59.9091H419.483ZM414.54 73V58.1023C414.54 57.3523 414.716 56.7273 415.068 56.2273C415.42 55.7273 415.878 55.3523 416.44 55.1023C417.003 54.8523 417.597 54.7273 418.222 54.7273C418.716 54.7273 419.119 54.767 419.432 54.8466C419.744 54.9261 419.977 55 420.131 55.0682L419.551 56.8068C419.449 56.7727 419.307 56.7301 419.125 56.679C418.949 56.6278 418.716 56.6023 418.426 56.6023C417.761 56.6023 417.281 56.7699 416.986 57.1051C416.696 57.4403 416.551 57.9318 416.551 58.5795V73H414.54ZM427.251 73.2727C425.99 73.2727 424.902 72.9943 423.987 72.4375C423.078 71.875 422.376 71.0909 421.882 70.0852C421.393 69.0739 421.149 67.8977 421.149 66.5568C421.149 65.2159 421.393 64.0341 421.882 63.0114C422.376 61.983 423.064 61.1818 423.945 60.608C424.831 60.0284 425.865 59.7386 427.047 59.7386C427.729 59.7386 428.402 59.8523 429.067 60.0795C429.732 60.3068 430.337 60.6761 430.882 61.1875C431.428 61.6932 431.862 62.3636 432.186 63.1989C432.51 64.0341 432.672 65.0625 432.672 66.2841V67.1364H422.581V65.3977H430.626C430.626 64.6591 430.479 64 430.183 63.4205C429.893 62.8409 429.479 62.3835 428.939 62.0483C428.405 61.7131 427.774 61.5455 427.047 61.5455C426.246 61.5455 425.553 61.7443 424.967 62.142C424.388 62.5341 423.942 63.0455 423.629 63.6761C423.317 64.3068 423.161 64.983 423.161 65.7045V66.8636C423.161 67.8523 423.331 68.6903 423.672 69.3778C424.018 70.0597 424.499 70.5795 425.112 70.9375C425.726 71.2898 426.439 71.4659 427.251 71.4659C427.78 71.4659 428.257 71.392 428.683 71.2443C429.115 71.0909 429.487 70.8636 429.8 70.5625C430.112 70.2557 430.354 69.875 430.524 69.4205L432.467 69.9659C432.263 70.625 431.919 71.2045 431.436 71.7045C430.953 72.1989 430.357 72.5852 429.646 72.8636C428.936 73.1364 428.138 73.2727 427.251 73.2727ZM441.05 73.2727C439.822 73.2727 438.766 72.983 437.879 72.4034C436.993 71.8239 436.311 71.0256 435.834 70.0085C435.357 68.9915 435.118 67.8295 435.118 66.5227C435.118 65.1932 435.362 64.0199 435.851 63.0028C436.345 61.9801 437.033 61.1818 437.913 60.608C438.8 60.0284 439.834 59.7386 441.016 59.7386C441.936 59.7386 442.766 59.9091 443.504 60.25C444.243 60.5909 444.848 61.0682 445.32 61.6818C445.791 62.2955 446.084 63.0114 446.197 63.8295H444.186C444.033 63.233 443.692 62.7045 443.163 62.2443C442.641 61.7784 441.936 61.5455 441.05 61.5455C440.266 61.5455 439.578 61.75 438.987 62.1591C438.402 62.5625 437.945 63.1335 437.615 63.8722C437.291 64.6051 437.129 65.4659 437.129 66.4545C437.129 67.4659 437.288 68.3466 437.607 69.0966C437.93 69.8466 438.385 70.429 438.97 70.8438C439.561 71.2585 440.254 71.4659 441.05 71.4659C441.572 71.4659 442.047 71.375 442.473 71.1932C442.899 71.0114 443.26 70.75 443.555 70.4091C443.851 70.0682 444.061 69.6591 444.186 69.1818H446.197C446.084 69.9545 445.803 70.6506 445.354 71.2699C444.911 71.8835 444.322 72.3722 443.589 72.7358C442.862 73.0938 442.016 73.2727 441.05 73.2727ZM454.831 59.9091V61.6136H448.047V59.9091H454.831ZM450.024 56.7727H452.036V69.25C452.036 69.8182 452.118 70.2443 452.283 70.5284C452.453 70.8068 452.669 70.9943 452.93 71.0909C453.197 71.1818 453.479 71.2273 453.774 71.2273C453.996 71.2273 454.178 71.2159 454.32 71.1932C454.462 71.1648 454.575 71.142 454.661 71.125L455.07 72.9318C454.933 72.983 454.743 73.0341 454.499 73.0852C454.254 73.142 453.945 73.1705 453.57 73.1705C453.001 73.1705 452.445 73.0483 451.899 72.804C451.359 72.5597 450.911 72.1875 450.553 71.6875C450.2 71.1875 450.024 70.5568 450.024 69.7955V56.7727ZM470.436 59.9091V61.6136H463.379V59.9091H470.436ZM465.493 73V58.1023C465.493 57.3523 465.669 56.7273 466.021 56.2273C466.374 55.7273 466.831 55.3523 467.393 55.1023C467.956 54.8523 468.55 54.7273 469.175 54.7273C469.669 54.7273 470.072 54.767 470.385 54.8466C470.697 54.9261 470.93 55 471.084 55.0682L470.504 56.8068C470.402 56.7727 470.26 56.7301 470.078 56.679C469.902 56.6278 469.669 56.6023 469.379 56.6023C468.714 56.6023 468.234 56.7699 467.939 57.1051C467.649 57.4403 467.504 57.9318 467.504 58.5795V73H465.493ZM478.034 73.2727C476.852 73.2727 475.815 72.9915 474.923 72.429C474.037 71.8665 473.344 71.0795 472.844 70.0682C472.349 69.0568 472.102 67.875 472.102 66.5227C472.102 65.1591 472.349 63.9687 472.844 62.9517C473.344 61.9347 474.037 61.1449 474.923 60.5824C475.815 60.0199 476.852 59.7386 478.034 59.7386C479.216 59.7386 480.25 60.0199 481.136 60.5824C482.028 61.1449 482.722 61.9347 483.216 62.9517C483.716 63.9687 483.966 65.1591 483.966 66.5227C483.966 67.875 483.716 69.0568 483.216 70.0682C482.722 71.0795 482.028 71.8665 481.136 72.429C480.25 72.9915 479.216 73.2727 478.034 73.2727ZM478.034 71.4659C478.932 71.4659 479.67 71.2358 480.25 70.7756C480.83 70.3153 481.259 69.7102 481.537 68.9602C481.815 68.2102 481.955 67.3977 481.955 66.5227C481.955 65.6477 481.815 64.8324 481.537 64.0767C481.259 63.321 480.83 62.7102 480.25 62.2443C479.67 61.7784 478.932 61.5455 478.034 61.5455C477.136 61.5455 476.398 61.7784 475.818 62.2443C475.239 62.7102 474.81 63.321 474.531 64.0767C474.253 64.8324 474.114 65.6477 474.114 66.5227C474.114 67.3977 474.253 68.2102 474.531 68.9602C474.81 69.7102 475.239 70.3153 475.818 70.7756C476.398 71.2358 477.136 71.4659 478.034 71.4659ZM487.036 73V59.9091H488.979V61.8864H489.116C489.354 61.2386 489.786 60.7131 490.411 60.3097C491.036 59.9062 491.741 59.7045 492.525 59.7045C492.673 59.7045 492.857 59.7074 493.079 59.7131C493.3 59.7187 493.468 59.7273 493.582 59.7386V61.7841C493.513 61.767 493.357 61.7415 493.113 61.7074C492.874 61.6676 492.621 61.6477 492.354 61.6477C491.718 61.6477 491.15 61.7812 490.65 62.0483C490.156 62.3097 489.763 62.6733 489.474 63.1392C489.19 63.5994 489.048 64.125 489.048 64.7159V73H487.036ZM508.034 73.2727C506.807 73.2727 505.75 72.983 504.864 72.4034C503.977 71.8239 503.295 71.0256 502.818 70.0085C502.341 68.9915 502.102 67.8295 502.102 66.5227C502.102 65.1932 502.347 64.0199 502.835 63.0028C503.33 61.9801 504.017 61.1818 504.898 60.608C505.784 60.0284 506.818 59.7386 508 59.7386C508.92 59.7386 509.75 59.9091 510.489 60.25C511.227 60.5909 511.832 61.0682 512.304 61.6818C512.776 62.2955 513.068 63.0114 513.182 63.8295H511.17C511.017 63.233 510.676 62.7045 510.148 62.2443C509.625 61.7784 508.92 61.5455 508.034 61.5455C507.25 61.5455 506.563 61.75 505.972 62.1591C505.386 62.5625 504.929 63.1335 504.599 63.8722C504.276 64.6051 504.114 65.4659 504.114 66.4545C504.114 67.4659 504.273 68.3466 504.591 69.0966C504.915 69.8466 505.369 70.429 505.955 70.8438C506.545 71.2585 507.239 71.4659 508.034 71.4659C508.557 71.4659 509.031 71.375 509.457 71.1932C509.884 71.0114 510.244 70.75 510.54 70.4091C510.835 70.0682 511.045 69.6591 511.17 69.1818H513.182C513.068 69.9545 512.787 70.6506 512.338 71.2699C511.895 71.8835 511.307 72.3722 510.574 72.7358C509.847 73.0938 509 73.2727 508.034 73.2727ZM521.44 73.2727C520.259 73.2727 519.222 72.9915 518.33 72.429C517.443 71.8665 516.75 71.0795 516.25 70.0682C515.756 69.0568 515.509 67.875 515.509 66.5227C515.509 65.1591 515.756 63.9687 516.25 62.9517C516.75 61.9347 517.443 61.1449 518.33 60.5824C519.222 60.0199 520.259 59.7386 521.44 59.7386C522.622 59.7386 523.656 60.0199 524.543 60.5824C525.435 61.1449 526.128 61.9347 526.622 62.9517C527.122 63.9687 527.372 65.1591 527.372 66.5227C527.372 67.875 527.122 69.0568 526.622 70.0682C526.128 71.0795 525.435 71.8665 524.543 72.429C523.656 72.9915 522.622 73.2727 521.44 73.2727ZM521.44 71.4659C522.338 71.4659 523.077 71.2358 523.656 70.7756C524.236 70.3153 524.665 69.7102 524.943 68.9602C525.222 68.2102 525.361 67.3977 525.361 66.5227C525.361 65.6477 525.222 64.8324 524.943 64.0767C524.665 63.321 524.236 62.7102 523.656 62.2443C523.077 61.7784 522.338 61.5455 521.44 61.5455C520.543 61.5455 519.804 61.7784 519.224 62.2443C518.645 62.7102 518.216 63.321 517.938 64.0767C517.659 64.8324 517.52 65.6477 517.52 66.5227C517.52 67.3977 517.659 68.2102 517.938 68.9602C518.216 69.7102 518.645 70.3153 519.224 70.7756C519.804 71.2358 520.543 71.4659 521.44 71.4659ZM532.454 65.125V73H530.442V59.9091H532.386V61.9545H532.556C532.863 61.2898 533.329 60.7557 533.954 60.3523C534.579 59.9432 535.386 59.7386 536.374 59.7386C537.261 59.7386 538.036 59.9205 538.701 60.2841C539.366 60.642 539.883 61.1875 540.252 61.9205C540.621 62.6477 540.806 63.5682 540.806 64.6818V73H538.795V64.8182C538.795 63.7898 538.528 62.9886 537.994 62.4148C537.46 61.8352 536.727 61.5455 535.795 61.5455C535.153 61.5455 534.579 61.6847 534.073 61.9631C533.573 62.2415 533.178 62.6477 532.888 63.1818C532.599 63.7159 532.454 64.3636 532.454 65.125ZM546.493 65.125V73H544.482V59.9091H546.425V61.9545H546.595C546.902 61.2898 547.368 60.7557 547.993 60.3523C548.618 59.9432 549.425 59.7386 550.413 59.7386C551.3 59.7386 552.075 59.9205 552.74 60.2841C553.405 60.642 553.922 61.1875 554.291 61.9205C554.661 62.6477 554.845 63.5682 554.845 64.6818V73H552.834V64.8182C552.834 63.7898 552.567 62.9886 552.033 62.4148C551.499 61.8352 550.766 61.5455 549.834 61.5455C549.192 61.5455 548.618 61.6847 548.112 61.9631C547.612 62.2415 547.217 62.6477 546.928 63.1818C546.638 63.7159 546.493 64.3636 546.493 65.125ZM564.009 73.2727C562.748 73.2727 561.66 72.9943 560.745 72.4375C559.836 71.875 559.134 71.0909 558.64 70.0852C558.151 69.0739 557.907 67.8977 557.907 66.5568C557.907 65.2159 558.151 64.0341 558.64 63.0114C559.134 61.983 559.822 61.1818 560.702 60.608C561.589 60.0284 562.623 59.7386 563.805 59.7386C564.487 59.7386 565.16 59.8523 565.825 60.0795C566.489 60.3068 567.094 60.6761 567.64 61.1875C568.185 61.6932 568.62 62.3636 568.944 63.1989C569.268 64.0341 569.43 65.0625 569.43 66.2841V67.1364H559.339V65.3977H567.384C567.384 64.6591 567.237 64 566.941 63.4205C566.651 62.8409 566.237 62.3835 565.697 62.0483C565.163 61.7131 564.532 61.5455 563.805 61.5455C563.004 61.5455 562.31 61.7443 561.725 62.142C561.146 62.5341 560.7 63.0455 560.387 63.6761C560.075 64.3068 559.918 64.983 559.918 65.7045V66.8636C559.918 67.8523 560.089 68.6903 560.43 69.3778C560.776 70.0597 561.256 70.5795 561.87 70.9375C562.484 71.2898 563.197 71.4659 564.009 71.4659C564.538 71.4659 565.015 71.392 565.441 71.2443C565.873 71.0909 566.245 70.8636 566.558 70.5625C566.87 70.2557 567.112 69.875 567.282 69.4205L569.225 69.9659C569.021 70.625 568.677 71.2045 568.194 71.7045C567.711 72.1989 567.114 72.5852 566.404 72.8636C565.694 73.1364 564.896 73.2727 564.009 73.2727ZM577.808 73.2727C576.58 73.2727 575.523 72.983 574.637 72.4034C573.751 71.8239 573.069 71.0256 572.592 70.0085C572.114 68.9915 571.876 67.8295 571.876 66.5227C571.876 65.1932 572.12 64.0199 572.609 63.0028C573.103 61.9801 573.79 61.1818 574.671 60.608C575.558 60.0284 576.592 59.7386 577.773 59.7386C578.694 59.7386 579.523 59.9091 580.262 60.25C581.001 60.5909 581.606 61.0682 582.077 61.6818C582.549 62.2955 582.842 63.0114 582.955 63.8295H580.944C580.79 63.233 580.45 62.7045 579.921 62.2443C579.398 61.7784 578.694 61.5455 577.808 61.5455C577.023 61.5455 576.336 61.75 575.745 62.1591C575.16 62.5625 574.702 63.1335 574.373 63.8722C574.049 64.6051 573.887 65.4659 573.887 66.4545C573.887 67.4659 574.046 68.3466 574.364 69.0966C574.688 69.8466 575.143 70.429 575.728 70.8438C576.319 71.2585 577.012 71.4659 577.808 71.4659C578.33 71.4659 578.805 71.375 579.231 71.1932C579.657 71.0114 580.018 70.75 580.313 70.4091C580.609 70.0682 580.819 69.6591 580.944 69.1818H582.955C582.842 69.9545 582.56 70.6506 582.112 71.2699C581.668 71.8835 581.08 72.3722 580.347 72.7358C579.62 73.0938 578.773 73.2727 577.808 73.2727ZM591.589 59.9091V61.6136H584.805V59.9091H591.589ZM586.782 56.7727H588.793V69.25C588.793 69.8182 588.876 70.2443 589.04 70.5284C589.211 70.8068 589.427 70.9943 589.688 71.0909C589.955 71.1818 590.237 71.2273 590.532 71.2273C590.754 71.2273 590.935 71.2159 591.077 71.1932C591.219 71.1648 591.333 71.142 591.418 71.125L591.827 72.9318C591.691 72.983 591.501 73.0341 591.256 73.0852C591.012 73.142 590.702 73.1705 590.327 73.1705C589.759 73.1705 589.202 73.0483 588.657 72.804C588.117 72.5597 587.668 72.1875 587.31 71.6875C586.958 71.1875 586.782 70.5568 586.782 69.7955V56.7727ZM594.614 73V59.9091H596.626V73H594.614ZM595.637 57.7273C595.245 57.7273 594.907 57.5938 594.623 57.3267C594.344 57.0597 594.205 56.7386 594.205 56.3636C594.205 55.9886 594.344 55.6676 594.623 55.4006C594.907 55.1335 595.245 55 595.637 55C596.029 55 596.364 55.1335 596.643 55.4006C596.927 55.6676 597.069 55.9886 597.069 56.3636C597.069 56.7386 596.927 57.0597 596.643 57.3267C596.364 57.5938 596.029 57.7273 595.637 57.7273ZM602.321 65.125V73H600.31V59.9091H602.253V61.9545H602.423C602.73 61.2898 603.196 60.7557 603.821 60.3523C604.446 59.9432 605.253 59.7386 606.241 59.7386C607.128 59.7386 607.903 59.9205 608.568 60.2841C609.233 60.642 609.75 61.1875 610.119 61.9205C610.489 62.6477 610.673 63.5682 610.673 64.6818V73H608.662V64.8182C608.662 63.7898 608.395 62.9886 607.861 62.4148C607.327 61.8352 606.594 61.5455 605.662 61.5455C605.02 61.5455 604.446 61.6847 603.94 61.9631C603.44 62.2415 603.045 62.6477 602.756 63.1818C602.466 63.7159 602.321 64.3636 602.321 65.125ZM619.633 78.1818C618.661 78.1818 617.826 78.0568 617.127 77.8068C616.428 77.5625 615.846 77.2386 615.38 76.8352C614.92 76.4375 614.553 76.0114 614.281 75.5568L615.883 74.4318C616.065 74.6705 616.295 74.9432 616.573 75.25C616.852 75.5625 617.232 75.8324 617.715 76.0597C618.204 76.2926 618.843 76.4091 619.633 76.4091C620.69 76.4091 621.562 76.1534 622.249 75.642C622.937 75.1307 623.281 74.3295 623.281 73.2386V70.5795H623.11C622.962 70.8182 622.752 71.1136 622.479 71.4659C622.212 71.8125 621.826 72.1222 621.32 72.3949C620.82 72.6619 620.144 72.7955 619.292 72.7955C618.235 72.7955 617.286 72.5455 616.445 72.0455C615.61 71.5455 614.948 70.8182 614.46 69.8636C613.977 68.9091 613.735 67.75 613.735 66.3864C613.735 65.0455 613.971 63.8778 614.442 62.8835C614.914 61.8835 615.57 61.1108 616.411 60.5653C617.252 60.0142 618.224 59.7386 619.326 59.7386C620.178 59.7386 620.854 59.8807 621.354 60.1648C621.86 60.4432 622.246 60.7614 622.513 61.1193C622.786 61.4716 622.996 61.7614 623.144 61.9886H623.349V59.9091H625.292V73.375C625.292 74.5 625.036 75.4148 624.525 76.1193C624.019 76.8295 623.337 77.3494 622.479 77.679C621.627 78.0142 620.678 78.1818 619.633 78.1818ZM619.565 70.9886C620.371 70.9886 621.053 70.804 621.61 70.4347C622.167 70.0653 622.59 69.5341 622.88 68.8409C623.17 68.1477 623.315 67.3182 623.315 66.3523C623.315 65.4091 623.173 64.5767 622.888 63.8551C622.604 63.1335 622.184 62.5682 621.627 62.1591C621.07 61.75 620.383 61.5455 619.565 61.5455C618.712 61.5455 618.002 61.7614 617.434 62.1932C616.871 62.625 616.448 63.2045 616.164 63.9318C615.886 64.6591 615.746 65.4659 615.746 66.3523C615.746 67.2614 615.888 68.0653 616.173 68.7642C616.462 69.4574 616.888 70.0028 617.451 70.4006C618.019 70.7926 618.724 70.9886 619.565 70.9886ZM641.417 59.9091V61.6136H634.633V59.9091H641.417ZM636.61 56.7727H638.621V69.25C638.621 69.8182 638.704 70.2443 638.869 70.5284C639.039 70.8068 639.255 70.9943 639.516 71.0909C639.783 71.1818 640.065 71.2273 640.36 71.2273C640.582 71.2273 640.763 71.2159 640.906 71.1932C641.048 71.1648 641.161 71.142 641.246 71.125L641.656 72.9318C641.519 72.983 641.329 73.0341 641.085 73.0852C640.84 73.142 640.531 73.1705 640.156 73.1705C639.587 73.1705 639.031 73.0483 638.485 72.804C637.945 72.5597 637.496 72.1875 637.138 71.6875C636.786 71.1875 636.61 70.5568 636.61 69.7955V56.7727ZM649.62 73.2727C648.438 73.2727 647.401 72.9915 646.509 72.429C645.623 71.8665 644.93 71.0795 644.43 70.0682C643.935 69.0568 643.688 67.875 643.688 66.5227C643.688 65.1591 643.935 63.9687 644.43 62.9517C644.93 61.9347 645.623 61.1449 646.509 60.5824C647.401 60.0199 648.438 59.7386 649.62 59.7386C650.802 59.7386 651.836 60.0199 652.722 60.5824C653.614 61.1449 654.308 61.9347 654.802 62.9517C655.302 63.9687 655.552 65.1591 655.552 66.5227C655.552 67.875 655.302 69.0568 654.802 70.0682C654.308 71.0795 653.614 71.8665 652.722 72.429C651.836 72.9915 650.802 73.2727 649.62 73.2727ZM649.62 71.4659C650.518 71.4659 651.256 71.2358 651.836 70.7756C652.415 70.3153 652.844 69.7102 653.123 68.9602C653.401 68.2102 653.54 67.3977 653.54 66.5227C653.54 65.6477 653.401 64.8324 653.123 64.0767C652.844 63.321 652.415 62.7102 651.836 62.2443C651.256 61.7784 650.518 61.5455 649.62 61.5455C648.722 61.5455 647.984 61.7784 647.404 62.2443C646.825 62.7102 646.396 63.321 646.117 64.0767C645.839 64.8324 645.7 65.6477 645.7 66.5227C645.7 67.3977 645.839 68.2102 646.117 68.9602C646.396 69.7102 646.825 70.3153 647.404 70.7756C647.984 71.2358 648.722 71.4659 649.62 71.4659ZM671.202 59.9091V61.6136H664.145V59.9091H671.202ZM666.259 73V58.1023C666.259 57.3523 666.435 56.7273 666.787 56.2273C667.139 55.7273 667.597 55.3523 668.159 55.1023C668.722 54.8523 669.315 54.7273 669.94 54.7273C670.435 54.7273 670.838 54.767 671.151 54.8466C671.463 54.9261 671.696 55 671.849 55.0682L671.27 56.8068C671.168 56.7727 671.026 56.7301 670.844 56.679C670.668 56.6278 670.435 56.6023 670.145 56.6023C669.48 56.6023 669 56.7699 668.705 57.1051C668.415 57.4403 668.27 57.9318 668.27 58.5795V73H666.259ZM674.021 73V59.9091H675.964V61.8864H676.1C676.339 61.2386 676.771 60.7131 677.396 60.3097C678.021 59.9062 678.725 59.7045 679.509 59.7045C679.657 59.7045 679.842 59.7074 680.063 59.7131C680.285 59.7187 680.452 59.7273 680.566 59.7386V61.7841C680.498 61.767 680.342 61.7415 680.097 61.7074C679.859 61.6676 679.606 61.6477 679.339 61.6477C678.702 61.6477 678.134 61.7812 677.634 62.0483C677.14 62.3097 676.748 62.6733 676.458 63.1392C676.174 63.5994 676.032 64.125 676.032 64.7159V73H674.021ZM688.04 73.2727C686.779 73.2727 685.691 72.9943 684.776 72.4375C683.867 71.875 683.165 71.0909 682.671 70.0852C682.183 69.0739 681.938 67.8977 681.938 66.5568C681.938 65.2159 682.183 64.0341 682.671 63.0114C683.165 61.983 683.853 61.1818 684.734 60.608C685.62 60.0284 686.654 59.7386 687.836 59.7386C688.518 59.7386 689.191 59.8523 689.856 60.0795C690.521 60.3068 691.126 60.6761 691.671 61.1875C692.217 61.6932 692.651 62.3636 692.975 63.1989C693.299 64.0341 693.461 65.0625 693.461 66.2841V67.1364H683.37V65.3977H691.415C691.415 64.6591 691.268 64 690.972 63.4205C690.683 62.8409 690.268 62.3835 689.728 62.0483C689.194 61.7131 688.563 61.5455 687.836 61.5455C687.035 61.5455 686.342 61.7443 685.756 62.142C685.177 62.5341 684.731 63.0455 684.418 63.6761C684.106 64.3068 683.95 64.983 683.95 65.7045V66.8636C683.95 67.8523 684.12 68.6903 684.461 69.3778C684.808 70.0597 685.288 70.5795 685.901 70.9375C686.515 71.2898 687.228 71.4659 688.04 71.4659C688.569 71.4659 689.046 71.392 689.472 71.2443C689.904 71.0909 690.276 70.8636 690.589 70.5625C690.901 70.2557 691.143 69.875 691.313 69.4205L693.256 69.9659C693.052 70.625 692.708 71.2045 692.225 71.7045C691.742 72.1989 691.146 72.5852 690.435 72.8636C689.725 73.1364 688.927 73.2727 688.04 73.2727ZM705.793 62.8409L703.987 63.3523C703.873 63.0511 703.705 62.7585 703.484 62.4744C703.268 62.1847 702.972 61.946 702.597 61.7585C702.222 61.571 701.742 61.4773 701.157 61.4773C700.356 61.4773 699.688 61.6619 699.154 62.0312C698.626 62.3949 698.362 62.858 698.362 63.4205C698.362 63.9205 698.543 64.3153 698.907 64.6051C699.271 64.8949 699.839 65.1364 700.612 65.3295L702.555 65.8068C703.725 66.0909 704.597 66.5256 705.171 67.1108C705.745 67.6903 706.032 68.4375 706.032 69.3523C706.032 70.1023 705.816 70.7727 705.384 71.3636C704.958 71.9545 704.362 72.4205 703.594 72.7614C702.827 73.1023 701.935 73.2727 700.918 73.2727C699.583 73.2727 698.478 72.983 697.603 72.4034C696.728 71.8239 696.174 70.9773 695.941 69.8636L697.85 69.3864C698.032 70.0909 698.376 70.6193 698.881 70.9716C699.393 71.3239 700.06 71.5 700.884 71.5C701.822 71.5 702.566 71.3011 703.117 70.9034C703.674 70.5 703.952 70.017 703.952 69.4545C703.952 69 703.793 68.6193 703.475 68.3125C703.157 68 702.668 67.767 702.009 67.6136L699.827 67.1023C698.629 66.8182 697.748 66.3778 697.185 65.7812C696.629 65.179 696.35 64.4261 696.35 63.5227C696.35 62.7841 696.558 62.1307 696.972 61.5625C697.393 60.9943 697.964 60.5483 698.685 60.2244C699.413 59.9006 700.237 59.7386 701.157 59.7386C702.452 59.7386 703.469 60.0227 704.208 60.5909C704.952 61.1591 705.481 61.9091 705.793 62.8409ZM711.071 65.125V73H709.06V55.5455H711.071V61.9545H711.241C711.548 61.2784 712.009 60.7415 712.622 60.3438C713.241 59.9403 714.065 59.7386 715.094 59.7386C715.986 59.7386 716.767 59.9176 717.438 60.2756C718.108 60.6278 718.628 61.1705 718.997 61.9034C719.372 62.6307 719.56 63.5568 719.56 64.6818V73H717.548V64.8182C717.548 63.7784 717.278 62.9744 716.739 62.4062C716.205 61.8324 715.463 61.5455 714.514 61.5455C713.855 61.5455 713.264 61.6847 712.741 61.9631C712.224 62.2415 711.815 62.6477 711.514 63.1818C711.219 63.7159 711.071 64.3636 711.071 65.125ZM384.114 91.8409L382.307 92.3523C382.193 92.0511 382.026 91.7585 381.804 91.4744C381.588 91.1847 381.293 90.946 380.918 90.7585C380.543 90.571 380.062 90.4773 379.477 90.4773C378.676 90.4773 378.009 90.6619 377.474 91.0312C376.946 91.3949 376.682 91.858 376.682 92.4205C376.682 92.9205 376.864 93.3153 377.227 93.6051C377.591 93.8949 378.159 94.1364 378.932 94.3295L380.875 94.8068C382.045 95.0909 382.918 95.5256 383.491 96.1108C384.065 96.6903 384.352 97.4375 384.352 98.3523C384.352 99.1023 384.136 99.7727 383.705 100.364C383.278 100.955 382.682 101.42 381.915 101.761C381.148 102.102 380.256 102.273 379.239 102.273C377.903 102.273 376.798 101.983 375.923 101.403C375.048 100.824 374.494 99.9773 374.261 98.8636L376.17 98.3864C376.352 99.0909 376.696 99.6193 377.202 99.9716C377.713 100.324 378.381 100.5 379.205 100.5C380.142 100.5 380.886 100.301 381.438 99.9034C381.994 99.5 382.273 99.017 382.273 98.4545C382.273 98 382.114 97.6193 381.795 97.3125C381.477 97 380.989 96.767 380.33 96.6136L378.148 96.1023C376.949 95.8182 376.068 95.3778 375.506 94.7812C374.949 94.179 374.67 93.4261 374.67 92.5227C374.67 91.7841 374.878 91.1307 375.293 90.5625C375.713 89.9943 376.284 89.5483 377.006 89.2244C377.733 88.9006 378.557 88.7386 379.477 88.7386C380.773 88.7386 381.79 89.0227 382.528 89.5909C383.273 90.1591 383.801 90.9091 384.114 91.8409ZM392.869 102.273C391.607 102.273 390.519 101.994 389.604 101.438C388.695 100.875 387.994 100.091 387.499 99.0852C387.011 98.0739 386.766 96.8977 386.766 95.5568C386.766 94.2159 387.011 93.0341 387.499 92.0114C387.994 90.983 388.681 90.1818 389.562 89.608C390.448 89.0284 391.482 88.7386 392.664 88.7386C393.346 88.7386 394.019 88.8523 394.684 89.0795C395.349 89.3068 395.954 89.6761 396.499 90.1875C397.045 90.6932 397.479 91.3636 397.803 92.1989C398.127 93.0341 398.289 94.0625 398.289 95.2841V96.1364H388.198V94.3977H396.244C396.244 93.6591 396.096 93 395.8 92.4205C395.511 91.8409 395.096 91.3835 394.556 91.0483C394.022 90.7131 393.391 90.5455 392.664 90.5455C391.863 90.5455 391.17 90.7443 390.585 91.142C390.005 91.5341 389.559 92.0455 389.246 92.6761C388.934 93.3068 388.778 93.983 388.778 94.7045V95.8636C388.778 96.8523 388.948 97.6903 389.289 98.3778C389.636 99.0597 390.116 99.5795 390.729 99.9375C391.343 100.29 392.056 100.466 392.869 100.466C393.397 100.466 393.874 100.392 394.3 100.244C394.732 100.091 395.104 99.8636 395.417 99.5625C395.729 99.2557 395.971 98.875 396.141 98.4205L398.085 98.9659C397.88 99.625 397.536 100.205 397.053 100.705C396.57 101.199 395.974 101.585 395.263 101.864C394.553 102.136 393.755 102.273 392.869 102.273ZM401.349 102V88.9091H403.292V90.8864H403.428C403.667 90.2386 404.099 89.7131 404.724 89.3097C405.349 88.9062 406.053 88.7045 406.837 88.7045C406.985 88.7045 407.17 88.7074 407.391 88.7131C407.613 88.7187 407.781 88.7273 407.894 88.7386V90.7841C407.826 90.767 407.67 90.7415 407.425 90.7074C407.187 90.6676 406.934 90.6477 406.667 90.6477C406.031 90.6477 405.462 90.7812 404.962 91.0483C404.468 91.3097 404.076 91.6733 403.786 92.1392C403.502 92.5994 403.36 93.125 403.36 93.7159V102H401.349ZM421.381 88.9091L416.54 102H414.495L409.654 88.9091H411.836L415.45 99.3409H415.586L419.2 88.9091H421.381ZM429.056 102.273C427.795 102.273 426.707 101.994 425.792 101.438C424.883 100.875 424.181 100.091 423.687 99.0852C423.198 98.0739 422.954 96.8977 422.954 95.5568C422.954 94.2159 423.198 93.0341 423.687 92.0114C424.181 90.983 424.869 90.1818 425.749 89.608C426.636 89.0284 427.67 88.7386 428.852 88.7386C429.533 88.7386 430.207 88.8523 430.871 89.0795C431.536 89.3068 432.141 89.6761 432.687 90.1875C433.232 90.6932 433.667 91.3636 433.991 92.1989C434.315 93.0341 434.477 94.0625 434.477 95.2841V96.1364H424.386V94.3977H432.431C432.431 93.6591 432.283 93 431.988 92.4205C431.698 91.8409 431.283 91.3835 430.744 91.0483C430.21 90.7131 429.579 90.5455 428.852 90.5455C428.05 90.5455 427.357 90.7443 426.772 91.142C426.192 91.5341 425.746 92.0455 425.434 92.6761C425.121 93.3068 424.965 93.983 424.965 94.7045V95.8636C424.965 96.8523 425.136 97.6903 425.477 98.3778C425.823 99.0597 426.303 99.5795 426.917 99.9375C427.531 100.29 428.244 100.466 429.056 100.466C429.585 100.466 430.062 100.392 430.488 100.244C430.92 100.091 431.292 99.8636 431.604 99.5625C431.917 99.2557 432.158 98.875 432.329 98.4205L434.272 98.9659C434.067 99.625 433.724 100.205 433.241 100.705C432.758 101.199 432.161 101.585 431.451 101.864C430.741 102.136 429.942 102.273 429.056 102.273ZM437.536 102V88.9091H439.479V90.8864H439.616C439.854 90.2386 440.286 89.7131 440.911 89.3097C441.536 88.9062 442.241 88.7045 443.025 88.7045C443.173 88.7045 443.357 88.7074 443.579 88.7131C443.8 88.7187 443.968 88.7273 444.082 88.7386V90.7841C444.013 90.767 443.857 90.7415 443.613 90.7074C443.374 90.6676 443.121 90.6477 442.854 90.6477C442.218 90.6477 441.65 90.7812 441.15 91.0483C440.656 91.3097 440.263 91.6733 439.974 92.1392C439.69 92.5994 439.548 93.125 439.548 93.7159V102H437.536ZM455.739 91.8409L453.932 92.3523C453.818 92.0511 453.651 91.7585 453.429 91.4744C453.213 91.1847 452.918 90.946 452.543 90.7585C452.168 90.571 451.688 90.4773 451.102 90.4773C450.301 90.4773 449.634 90.6619 449.099 91.0312C448.571 91.3949 448.307 91.858 448.307 92.4205C448.307 92.9205 448.489 93.3153 448.852 93.6051C449.216 93.8949 449.784 94.1364 450.557 94.3295L452.5 94.8068C453.67 95.0909 454.543 95.5256 455.116 96.1108C455.69 96.6903 455.977 97.4375 455.977 98.3523C455.977 99.1023 455.761 99.7727 455.33 100.364C454.903 100.955 454.307 101.42 453.54 101.761C452.773 102.102 451.881 102.273 450.864 102.273C449.528 102.273 448.423 101.983 447.548 101.403C446.673 100.824 446.119 99.9773 445.886 98.8636L447.795 98.3864C447.977 99.0909 448.321 99.6193 448.827 99.9716C449.338 100.324 450.006 100.5 450.83 100.5C451.767 100.5 452.511 100.301 453.062 99.9034C453.619 99.5 453.898 99.017 453.898 98.4545C453.898 98 453.739 97.6193 453.42 97.3125C453.102 97 452.614 96.767 451.955 96.6136L449.773 96.1023C448.574 95.8182 447.693 95.3778 447.131 94.7812C446.574 94.179 446.295 93.4261 446.295 92.5227C446.295 91.7841 446.503 91.1307 446.918 90.5625C447.338 89.9943 447.909 89.5483 448.631 89.2244C449.358 88.9006 450.182 88.7386 451.102 88.7386C452.398 88.7386 453.415 89.0227 454.153 89.5909C454.898 90.1591 455.426 90.9091 455.739 91.8409ZM462.005 99.6136L461.869 100.534C461.772 101.182 461.624 101.875 461.425 102.614C461.232 103.352 461.031 104.048 460.82 104.702C460.61 105.355 460.437 105.875 460.3 106.261H458.766C458.84 105.898 458.937 105.418 459.056 104.821C459.175 104.224 459.295 103.557 459.414 102.818C459.539 102.085 459.641 101.335 459.721 100.568L459.823 99.6136H462.005ZM473.47 84.5455L478.652 99.2386H478.857L484.038 84.5455H486.254L479.845 102H477.663L471.254 84.5455H473.47ZM488.973 84.5455H491.496L497.428 99.0341H497.632L503.564 84.5455H506.087V102H504.109V88.7386H503.939L498.484 102H496.575L491.121 88.7386H490.95V102H488.973V84.5455ZM519.325 91.8409L517.518 92.3523C517.404 92.0511 517.237 91.7585 517.015 91.4744C516.799 91.1847 516.504 90.946 516.129 90.7585C515.754 90.571 515.273 90.4773 514.688 90.4773C513.887 90.4773 513.219 90.6619 512.685 91.0312C512.157 91.3949 511.893 91.858 511.893 92.4205C511.893 92.9205 512.075 93.3153 512.438 93.6051C512.802 93.8949 513.37 94.1364 514.143 94.3295L516.086 94.8068C517.256 95.0909 518.129 95.5256 518.702 96.1108C519.276 96.6903 519.563 97.4375 519.563 98.3523C519.563 99.1023 519.347 99.7727 518.915 100.364C518.489 100.955 517.893 101.42 517.126 101.761C516.359 102.102 515.467 102.273 514.45 102.273C513.114 102.273 512.009 101.983 511.134 101.403C510.259 100.824 509.705 99.9773 509.472 98.8636L511.381 98.3864C511.563 99.0909 511.907 99.6193 512.413 99.9716C512.924 100.324 513.592 100.5 514.415 100.5C515.353 100.5 516.097 100.301 516.648 99.9034C517.205 99.5 517.484 99.017 517.484 98.4545C517.484 98 517.325 97.6193 517.006 97.3125C516.688 97 516.2 96.767 515.54 96.6136L513.359 96.1023C512.16 95.8182 511.279 95.3778 510.717 94.7812C510.16 94.179 509.881 93.4261 509.881 92.5227C509.881 91.7841 510.089 91.1307 510.504 90.5625C510.924 89.9943 511.495 89.5483 512.217 89.2244C512.944 88.9006 513.768 88.7386 514.688 88.7386C515.984 88.7386 517.001 89.0227 517.739 89.5909C518.484 90.1591 519.012 90.9091 519.325 91.8409ZM525.591 99.6136L525.455 100.534C525.358 101.182 525.21 101.875 525.011 102.614C524.818 103.352 524.616 104.048 524.406 104.702C524.196 105.355 524.023 105.875 523.886 106.261H522.352C522.426 105.898 522.523 105.418 522.642 104.821C522.761 104.224 522.881 103.557 523 102.818C523.125 102.085 523.227 101.335 523.307 100.568L523.409 99.6136H525.591ZM541.386 102.273C540.204 102.273 539.167 101.991 538.275 101.429C537.388 100.866 536.695 100.08 536.195 99.0682C535.701 98.0568 535.454 96.875 535.454 95.5227C535.454 94.1591 535.701 92.9687 536.195 91.9517C536.695 90.9347 537.388 90.1449 538.275 89.5824C539.167 89.0199 540.204 88.7386 541.386 88.7386C542.567 88.7386 543.602 89.0199 544.488 89.5824C545.38 90.1449 546.073 90.9347 546.567 91.9517C547.067 92.9687 547.317 94.1591 547.317 95.5227C547.317 96.875 547.067 98.0568 546.567 99.0682C546.073 100.08 545.38 100.866 544.488 101.429C543.602 101.991 542.567 102.273 541.386 102.273ZM541.386 100.466C542.283 100.466 543.022 100.236 543.602 99.7756C544.181 99.3153 544.61 98.7102 544.888 97.9602C545.167 97.2102 545.306 96.3977 545.306 95.5227C545.306 94.6477 545.167 93.8324 544.888 93.0767C544.61 92.321 544.181 91.7102 543.602 91.2443C543.022 90.7784 542.283 90.5455 541.386 90.5455C540.488 90.5455 539.749 90.7784 539.17 91.2443C538.59 91.7102 538.161 92.321 537.883 93.0767C537.604 93.8324 537.465 94.6477 537.465 95.5227C537.465 96.3977 537.604 97.2102 537.883 97.9602C538.161 98.7102 538.59 99.3153 539.17 99.7756C539.749 100.236 540.488 100.466 541.386 100.466ZM550.388 102V88.9091H552.331V90.8864H552.467C552.706 90.2386 553.138 89.7131 553.763 89.3097C554.388 88.9062 555.092 88.7045 555.876 88.7045C556.024 88.7045 556.209 88.7074 556.43 88.7131C556.652 88.7187 556.82 88.7273 556.933 88.7386V90.7841C556.865 90.767 556.709 90.7415 556.464 90.7074C556.226 90.6676 555.973 90.6477 555.706 90.6477C555.07 90.6477 554.501 90.7812 554.001 91.0483C553.507 91.3097 553.115 91.6733 552.825 92.1392C552.541 92.5994 552.399 93.125 552.399 93.7159V102H550.388ZM566.067 102V88.9091H568.011V90.9545H568.181C568.454 90.2557 568.894 89.7131 569.502 89.3267C570.11 88.9347 570.84 88.7386 571.692 88.7386C572.556 88.7386 573.275 88.9347 573.849 89.3267C574.428 89.7131 574.88 90.2557 575.204 90.9545H575.34C575.675 90.2784 576.178 89.7415 576.849 89.3438C577.519 88.9403 578.323 88.7386 579.261 88.7386C580.431 88.7386 581.388 89.1051 582.133 89.8381C582.877 90.5653 583.249 91.6989 583.249 93.2386V102H581.238V93.2386C581.238 92.2727 580.974 91.5824 580.445 91.1676C579.917 90.7528 579.295 90.5455 578.579 90.5455C577.658 90.5455 576.945 90.8239 576.44 91.3807C575.934 91.9318 575.681 92.6307 575.681 93.4773V102H573.636V93.0341C573.636 92.2898 573.394 91.6903 572.911 91.2358C572.428 90.7756 571.806 90.5455 571.045 90.5455C570.522 90.5455 570.033 90.6847 569.579 90.9631C569.13 91.2415 568.766 91.6278 568.488 92.1222C568.215 92.6108 568.079 93.1761 568.079 93.8182V102H566.067ZM590.779 102.307C589.95 102.307 589.197 102.151 588.521 101.838C587.844 101.52 587.308 101.062 586.91 100.466C586.512 99.8636 586.313 99.1364 586.313 98.2841C586.313 97.5341 586.461 96.9261 586.756 96.4602C587.052 95.9886 587.447 95.6193 587.941 95.3523C588.435 95.0852 588.981 94.8864 589.577 94.7557C590.18 94.6193 590.785 94.5114 591.393 94.4318C592.188 94.3295 592.833 94.2528 593.327 94.2017C593.827 94.1449 594.191 94.0511 594.418 93.9205C594.651 93.7898 594.768 93.5625 594.768 93.2386V93.1705C594.768 92.3295 594.538 91.6761 594.077 91.2102C593.623 90.7443 592.933 90.5114 592.006 90.5114C591.046 90.5114 590.293 90.7216 589.748 91.142C589.202 91.5625 588.819 92.0114 588.597 92.4886L586.688 91.8068C587.029 91.0114 587.484 90.392 588.052 89.9489C588.626 89.5 589.251 89.1875 589.927 89.0114C590.609 88.8295 591.279 88.7386 591.938 88.7386C592.359 88.7386 592.842 88.7898 593.387 88.892C593.938 88.9886 594.469 89.1903 594.981 89.4972C595.498 89.804 595.927 90.267 596.268 90.8864C596.609 91.5057 596.779 92.3352 596.779 93.375V102H594.768V100.227H594.665C594.529 100.511 594.302 100.815 593.984 101.139C593.665 101.463 593.242 101.739 592.714 101.966C592.185 102.193 591.54 102.307 590.779 102.307ZM591.086 100.5C591.881 100.5 592.552 100.344 593.097 100.031C593.648 99.7188 594.063 99.3153 594.342 98.821C594.626 98.3267 594.768 97.8068 594.768 97.2614V95.4205C594.683 95.5227 594.495 95.6165 594.205 95.7017C593.921 95.7812 593.592 95.8523 593.217 95.9148C592.847 95.9716 592.487 96.0227 592.134 96.0682C591.788 96.108 591.506 96.142 591.29 96.1705C590.768 96.2386 590.279 96.3494 589.825 96.5028C589.376 96.6506 589.012 96.875 588.734 97.1761C588.461 97.4716 588.325 97.875 588.325 98.3864C588.325 99.0852 588.583 99.6136 589.1 99.9716C589.623 100.324 590.285 100.5 591.086 100.5ZM605.768 102.273C604.541 102.273 603.484 101.983 602.598 101.403C601.712 100.824 601.03 100.026 600.553 99.0085C600.075 97.9915 599.837 96.8295 599.837 95.5227C599.837 94.1932 600.081 93.0199 600.57 92.0028C601.064 90.9801 601.751 90.1818 602.632 89.608C603.518 89.0284 604.553 88.7386 605.734 88.7386C606.655 88.7386 607.484 88.9091 608.223 89.25C608.962 89.5909 609.567 90.0682 610.038 90.6818C610.51 91.2955 610.803 92.0114 610.916 92.8295H608.905C608.751 92.233 608.411 91.7045 607.882 91.2443C607.359 90.7784 606.655 90.5455 605.768 90.5455C604.984 90.5455 604.297 90.75 603.706 91.1591C603.121 91.5625 602.663 92.1335 602.334 92.8722C602.01 93.6051 601.848 94.4659 601.848 95.4545C601.848 96.4659 602.007 97.3466 602.325 98.0966C602.649 98.8466 603.104 99.429 603.689 99.8438C604.28 100.259 604.973 100.466 605.768 100.466C606.291 100.466 606.766 100.375 607.192 100.193C607.618 100.011 607.979 99.75 608.274 99.4091C608.57 99.0682 608.78 98.6591 608.905 98.1818H610.916C610.803 98.9545 610.521 99.6506 610.072 100.27C609.629 100.884 609.041 101.372 608.308 101.736C607.581 102.094 606.734 102.273 605.768 102.273ZM615.868 94.125V102H613.857V84.5455H615.868V90.9545H616.038C616.345 90.2784 616.805 89.7415 617.419 89.3438C618.038 88.9403 618.862 88.7386 619.891 88.7386C620.783 88.7386 621.564 88.9176 622.234 89.2756C622.905 89.6278 623.425 90.1705 623.794 90.9034C624.169 91.6307 624.357 92.5568 624.357 93.6818V102H622.345V93.8182C622.345 92.7784 622.075 91.9744 621.536 91.4062C621.001 90.8324 620.26 90.5455 619.311 90.5455C618.652 90.5455 618.061 90.6847 617.538 90.9631C617.021 91.2415 616.612 91.6477 616.311 92.1818C616.016 92.7159 615.868 93.3636 615.868 94.125ZM628.036 102V88.9091H630.048V102H628.036ZM629.059 86.7273C628.667 86.7273 628.329 86.5938 628.045 86.3267C627.766 86.0597 627.627 85.7386 627.627 85.3636C627.627 84.9886 627.766 84.6676 628.045 84.4006C628.329 84.1335 628.667 84 629.059 84C629.451 84 629.786 84.1335 630.065 84.4006C630.349 84.6676 630.491 84.9886 630.491 85.3636C630.491 85.7386 630.349 86.0597 630.065 86.3267C629.786 86.5938 629.451 86.7273 629.059 86.7273ZM635.743 94.125V102H633.732V88.9091H635.675V90.9545H635.845C636.152 90.2898 636.618 89.7557 637.243 89.3523C637.868 88.9432 638.675 88.7386 639.663 88.7386C640.55 88.7386 641.325 88.9205 641.99 89.2841C642.655 89.642 643.172 90.1875 643.541 90.9205C643.911 91.6477 644.095 92.5682 644.095 93.6818V102H642.084V93.8182C642.084 92.7898 641.817 91.9886 641.283 91.4148C640.749 90.8352 640.016 90.5455 639.084 90.5455C638.442 90.5455 637.868 90.6847 637.362 90.9631C636.862 91.2415 636.467 91.6477 636.178 92.1818C635.888 92.7159 635.743 93.3636 635.743 94.125ZM653.259 102.273C651.998 102.273 650.91 101.994 649.995 101.438C649.086 100.875 648.384 100.091 647.89 99.0852C647.401 98.0739 647.157 96.8977 647.157 95.5568C647.157 94.2159 647.401 93.0341 647.89 92.0114C648.384 90.983 649.072 90.1818 649.952 89.608C650.839 89.0284 651.873 88.7386 653.055 88.7386C653.737 88.7386 654.41 88.8523 655.075 89.0795C655.739 89.3068 656.344 89.6761 656.89 90.1875C657.435 90.6932 657.87 91.3636 658.194 92.1989C658.518 93.0341 658.68 94.0625 658.68 95.2841V96.1364H648.589V94.3977H656.634C656.634 93.6591 656.487 93 656.191 92.4205C655.901 91.8409 655.487 91.3835 654.947 91.0483C654.413 90.7131 653.782 90.5455 653.055 90.5455C652.254 90.5455 651.56 90.7443 650.975 91.142C650.396 91.5341 649.95 92.0455 649.637 92.6761C649.325 93.3068 649.168 93.983 649.168 94.7045V95.8636C649.168 96.8523 649.339 97.6903 649.68 98.3778C650.026 99.0597 650.506 99.5795 651.12 99.9375C651.734 100.29 652.447 100.466 653.259 100.466C653.788 100.466 654.265 100.392 654.691 100.244C655.123 100.091 655.495 99.8636 655.808 99.5625C656.12 99.2557 656.362 98.875 656.532 98.4205L658.475 98.9659C658.271 99.625 657.927 100.205 657.444 100.705C656.961 101.199 656.364 101.585 655.654 101.864C654.944 102.136 654.146 102.273 653.259 102.273ZM671.012 91.8409L669.205 92.3523C669.092 92.0511 668.924 91.7585 668.702 91.4744C668.487 91.1847 668.191 90.946 667.816 90.7585C667.441 90.571 666.961 90.4773 666.376 90.4773C665.575 90.4773 664.907 90.6619 664.373 91.0312C663.844 91.3949 663.58 91.858 663.58 92.4205C663.58 92.9205 663.762 93.3153 664.126 93.6051C664.489 93.8949 665.058 94.1364 665.83 94.3295L667.773 94.8068C668.944 95.0909 669.816 95.5256 670.39 96.1108C670.964 96.6903 671.251 97.4375 671.251 98.3523C671.251 99.1023 671.035 99.7727 670.603 100.364C670.177 100.955 669.58 101.42 668.813 101.761C668.046 102.102 667.154 102.273 666.137 102.273C664.802 102.273 663.697 101.983 662.822 101.403C661.947 100.824 661.393 99.9773 661.16 98.8636L663.069 98.3864C663.251 99.0909 663.594 99.6193 664.1 99.9716C664.612 100.324 665.279 100.5 666.103 100.5C667.04 100.5 667.785 100.301 668.336 99.9034C668.893 99.5 669.171 99.017 669.171 98.4545C669.171 98 669.012 97.6193 668.694 97.3125C668.376 97 667.887 96.767 667.228 96.6136L665.046 96.1023C663.847 95.8182 662.967 95.3778 662.404 94.7812C661.847 94.179 661.569 93.4261 661.569 92.5227C661.569 91.7841 661.776 91.1307 662.191 90.5625C662.612 89.9943 663.183 89.5483 663.904 89.2244C664.631 88.9006 665.455 88.7386 666.376 88.7386C667.671 88.7386 668.688 89.0227 669.427 89.5909C670.171 90.1591 670.7 90.9091 671.012 91.8409ZM683.994 102L680.006 88.9091H682.119L684.949 98.9318H685.085L687.881 88.9091H690.028L692.79 98.8977H692.926L695.756 88.9091H697.869L693.881 102H691.903L689.04 91.9432H688.835L685.972 102H683.994ZM702.54 94.125V102H700.528V84.5455H702.54V90.9545H702.71C703.017 90.2784 703.477 89.7415 704.091 89.3438C704.71 88.9403 705.534 88.7386 706.562 88.7386C707.455 88.7386 708.236 88.9176 708.906 89.2756C709.577 89.6278 710.097 90.1705 710.466 90.9034C710.841 91.6307 711.028 92.5568 711.028 93.6818V102H709.017V93.8182C709.017 92.7784 708.747 91.9744 708.207 91.4062C707.673 90.8324 706.932 90.5455 705.983 90.5455C705.324 90.5455 704.733 90.6847 704.21 90.9631C703.693 91.2415 703.284 91.6477 702.983 92.1818C702.688 92.7159 702.54 93.3636 702.54 94.125ZM720.197 102.273C718.935 102.273 717.847 101.994 716.933 101.438C716.023 100.875 715.322 100.091 714.827 99.0852C714.339 98.0739 714.094 96.8977 714.094 95.5568C714.094 94.2159 714.339 93.0341 714.827 92.0114C715.322 90.983 716.009 90.1818 716.89 89.608C717.776 89.0284 718.81 88.7386 719.992 88.7386C720.674 88.7386 721.347 88.8523 722.012 89.0795C722.677 89.3068 723.282 89.6761 723.827 90.1875C724.373 90.6932 724.808 91.3636 725.131 92.1989C725.455 93.0341 725.617 94.0625 725.617 95.2841V96.1364H715.526V94.3977H723.572C723.572 93.6591 723.424 93 723.129 92.4205C722.839 91.8409 722.424 91.3835 721.884 91.0483C721.35 90.7131 720.719 90.5455 719.992 90.5455C719.191 90.5455 718.498 90.7443 717.913 91.142C717.333 91.5341 716.887 92.0455 716.575 92.6761C716.262 93.3068 716.106 93.983 716.106 94.7045V95.8636C716.106 96.8523 716.276 97.6903 716.617 98.3778C716.964 99.0597 717.444 99.5795 718.058 99.9375C718.671 100.29 719.384 100.466 720.197 100.466C720.725 100.466 721.202 100.392 721.629 100.244C722.06 100.091 722.433 99.8636 722.745 99.5625C723.058 99.2557 723.299 98.875 723.469 98.4205L725.413 98.9659C725.208 99.625 724.864 100.205 724.381 100.705C723.898 101.199 723.302 101.585 722.592 101.864C721.881 102.136 721.083 102.273 720.197 102.273ZM728.677 102V88.9091H730.62V90.8864H730.756C730.995 90.2386 731.427 89.7131 732.052 89.3097C732.677 88.9062 733.381 88.7045 734.165 88.7045C734.313 88.7045 734.498 88.7074 734.719 88.7131C734.941 88.7187 735.109 88.7273 735.222 88.7386V90.7841C735.154 90.767 734.998 90.7415 734.754 90.7074C734.515 90.6676 734.262 90.6477 733.995 90.6477C733.359 90.6477 732.79 90.7812 732.29 91.0483C731.796 91.3097 731.404 91.6733 731.114 92.1392C730.83 92.5994 730.688 93.125 730.688 93.7159V102H728.677ZM742.697 102.273C741.435 102.273 740.347 101.994 739.433 101.438C738.523 100.875 737.822 100.091 737.327 99.0852C736.839 98.0739 736.594 96.8977 736.594 95.5568C736.594 94.2159 736.839 93.0341 737.327 92.0114C737.822 90.983 738.509 90.1818 739.39 89.608C740.276 89.0284 741.31 88.7386 742.492 88.7386C743.174 88.7386 743.847 88.8523 744.512 89.0795C745.177 89.3068 745.782 89.6761 746.327 90.1875C746.873 90.6932 747.308 91.3636 747.631 92.1989C747.955 93.0341 748.117 94.0625 748.117 95.2841V96.1364H738.026V94.3977H746.072C746.072 93.6591 745.924 93 745.629 92.4205C745.339 91.8409 744.924 91.3835 744.384 91.0483C743.85 90.7131 743.219 90.5455 742.492 90.5455C741.691 90.5455 740.998 90.7443 740.413 91.142C739.833 91.5341 739.387 92.0455 739.075 92.6761C738.762 93.3068 738.606 93.983 738.606 94.7045V95.8636C738.606 96.8523 738.776 97.6903 739.117 98.3778C739.464 99.0597 739.944 99.5795 740.558 99.9375C741.171 100.29 741.884 100.466 742.697 100.466C743.225 100.466 743.702 100.392 744.129 100.244C744.56 100.091 744.933 99.8636 745.245 99.5625C745.558 99.2557 745.799 98.875 745.969 98.4205L747.913 98.9659C747.708 99.625 747.364 100.205 746.881 100.705C746.398 101.199 745.802 101.585 745.092 101.864C744.381 102.136 743.583 102.273 742.697 102.273ZM376.136 135.909C375.795 135.909 375.491 135.881 375.224 135.824C374.957 135.773 374.773 135.722 374.67 135.67L375.182 133.898C375.67 134.023 376.102 134.068 376.477 134.034C376.852 134 377.185 133.832 377.474 133.531C377.77 133.236 378.04 132.756 378.284 132.091L378.659 131.068L373.818 117.909H376L379.614 128.341H379.75L383.364 117.909H385.545L379.989 132.909C379.739 133.585 379.429 134.145 379.06 134.588C378.69 135.037 378.261 135.369 377.773 135.585C377.29 135.801 376.744 135.909 376.136 135.909ZM393.05 131.273C391.868 131.273 390.831 130.991 389.939 130.429C389.053 129.866 388.359 129.08 387.859 128.068C387.365 127.057 387.118 125.875 387.118 124.523C387.118 123.159 387.365 121.969 387.859 120.952C388.359 119.935 389.053 119.145 389.939 118.582C390.831 118.02 391.868 117.739 393.05 117.739C394.232 117.739 395.266 118.02 396.152 118.582C397.044 119.145 397.737 119.935 398.232 120.952C398.732 121.969 398.982 123.159 398.982 124.523C398.982 125.875 398.732 127.057 398.232 128.068C397.737 129.08 397.044 129.866 396.152 130.429C395.266 130.991 394.232 131.273 393.05 131.273ZM393.05 129.466C393.947 129.466 394.686 129.236 395.266 128.776C395.845 128.315 396.274 127.71 396.553 126.96C396.831 126.21 396.97 125.398 396.97 124.523C396.97 123.648 396.831 122.832 396.553 122.077C396.274 121.321 395.845 120.71 395.266 120.244C394.686 119.778 393.947 119.545 393.05 119.545C392.152 119.545 391.413 119.778 390.834 120.244C390.254 120.71 389.825 121.321 389.547 122.077C389.268 122.832 389.129 123.648 389.129 124.523C389.129 125.398 389.268 126.21 389.547 126.96C389.825 127.71 390.254 128.315 390.834 128.776C391.413 129.236 392.152 129.466 393.05 129.466ZM410.302 125.648V117.909H412.313V131H410.302V128.784H410.165C409.859 129.449 409.381 130.014 408.734 130.48C408.086 130.94 407.268 131.17 406.279 131.17C405.461 131.17 404.734 130.991 404.097 130.634C403.461 130.27 402.961 129.724 402.597 128.997C402.234 128.264 402.052 127.341 402.052 126.227V117.909H404.063V126.091C404.063 127.045 404.33 127.807 404.864 128.375C405.404 128.943 406.092 129.227 406.927 129.227C407.427 129.227 407.935 129.099 408.452 128.844C408.975 128.588 409.413 128.196 409.765 127.668C410.123 127.139 410.302 126.466 410.302 125.648ZM427.69 131.273C426.599 131.273 425.636 130.997 424.801 130.446C423.966 129.889 423.313 129.105 422.841 128.094C422.369 127.077 422.134 125.875 422.134 124.489C422.134 123.114 422.369 121.92 422.841 120.909C423.313 119.898 423.969 119.116 424.81 118.565C425.651 118.014 426.622 117.739 427.724 117.739C428.577 117.739 429.25 117.881 429.744 118.165C430.244 118.443 430.625 118.761 430.886 119.119C431.153 119.472 431.361 119.761 431.509 119.989H431.679V113.545H433.69V131H431.747V128.989H431.509C431.361 129.227 431.151 129.528 430.878 129.892C430.605 130.25 430.216 130.571 429.71 130.855C429.205 131.134 428.531 131.273 427.69 131.273ZM427.963 129.466C428.77 129.466 429.452 129.256 430.009 128.835C430.565 128.409 430.989 127.821 431.278 127.071C431.568 126.315 431.713 125.443 431.713 124.455C431.713 123.477 431.571 122.622 431.287 121.889C431.003 121.151 430.582 120.577 430.026 120.168C429.469 119.753 428.781 119.545 427.963 119.545C427.111 119.545 426.401 119.764 425.832 120.202C425.27 120.634 424.847 121.222 424.562 121.966C424.284 122.705 424.145 123.534 424.145 124.455C424.145 125.386 424.287 126.233 424.571 126.994C424.861 127.75 425.287 128.352 425.849 128.801C426.418 129.244 427.122 129.466 427.963 129.466ZM442.972 131.273C441.79 131.273 440.753 130.991 439.861 130.429C438.974 129.866 438.281 129.08 437.781 128.068C437.287 127.057 437.04 125.875 437.04 124.523C437.04 123.159 437.287 121.969 437.781 120.952C438.281 119.935 438.974 119.145 439.861 118.582C440.753 118.02 441.79 117.739 442.972 117.739C444.153 117.739 445.188 118.02 446.074 118.582C446.966 119.145 447.659 119.935 448.153 120.952C448.653 121.969 448.903 123.159 448.903 124.523C448.903 125.875 448.653 127.057 448.153 128.068C447.659 129.08 446.966 129.866 446.074 130.429C445.188 130.991 444.153 131.273 442.972 131.273ZM442.972 129.466C443.869 129.466 444.608 129.236 445.188 128.776C445.767 128.315 446.196 127.71 446.474 126.96C446.753 126.21 446.892 125.398 446.892 124.523C446.892 123.648 446.753 122.832 446.474 122.077C446.196 121.321 445.767 120.71 445.188 120.244C444.608 119.778 443.869 119.545 442.972 119.545C442.074 119.545 441.335 119.778 440.756 120.244C440.176 120.71 439.747 121.321 439.469 122.077C439.19 122.832 439.051 123.648 439.051 124.523C439.051 125.398 439.19 126.21 439.469 126.96C439.747 127.71 440.176 128.315 440.756 128.776C441.335 129.236 442.074 129.466 442.972 129.466ZM453.985 123.125V131H451.974V117.909H453.917V119.955H454.087C454.394 119.29 454.86 118.756 455.485 118.352C456.11 117.943 456.917 117.739 457.906 117.739C458.792 117.739 459.567 117.92 460.232 118.284C460.897 118.642 461.414 119.188 461.783 119.92C462.153 120.648 462.337 121.568 462.337 122.682V131H460.326V122.818C460.326 121.79 460.059 120.989 459.525 120.415C458.991 119.835 458.258 119.545 457.326 119.545C456.684 119.545 456.11 119.685 455.604 119.963C455.104 120.241 454.71 120.648 454.42 121.182C454.13 121.716 453.985 122.364 453.985 123.125ZM467.786 113.545V115.08C467.786 115.545 467.7 116.043 467.53 116.571C467.365 117.094 467.121 117.602 466.797 118.097C466.479 118.585 466.092 119.011 465.638 119.375L464.547 118.489C464.905 117.977 465.214 117.446 465.476 116.895C465.743 116.338 465.876 115.744 465.876 115.114V113.545H467.786ZM476.487 117.909V119.614H469.703V117.909H476.487ZM471.68 114.773H473.692V127.25C473.692 127.818 473.774 128.244 473.939 128.528C474.109 128.807 474.325 128.994 474.587 129.091C474.854 129.182 475.135 129.227 475.43 129.227C475.652 129.227 475.834 129.216 475.976 129.193C476.118 129.165 476.232 129.142 476.317 129.125L476.726 130.932C476.589 130.983 476.399 131.034 476.155 131.085C475.911 131.142 475.601 131.17 475.226 131.17C474.658 131.17 474.101 131.048 473.555 130.804C473.016 130.56 472.567 130.188 472.209 129.688C471.857 129.188 471.68 128.557 471.68 127.795V114.773ZM489.229 131L485.24 117.909H487.354L490.183 127.932H490.32L493.115 117.909H495.263L498.024 127.898H498.161L500.99 117.909H503.104L499.115 131H497.138L494.274 120.943H494.07L491.206 131H489.229ZM509.615 131.307C508.786 131.307 508.033 131.151 507.357 130.838C506.68 130.52 506.143 130.062 505.746 129.466C505.348 128.864 505.149 128.136 505.149 127.284C505.149 126.534 505.297 125.926 505.592 125.46C505.888 124.989 506.283 124.619 506.777 124.352C507.271 124.085 507.817 123.886 508.413 123.756C509.016 123.619 509.621 123.511 510.229 123.432C511.024 123.33 511.669 123.253 512.163 123.202C512.663 123.145 513.027 123.051 513.254 122.92C513.487 122.79 513.604 122.562 513.604 122.239V122.17C513.604 121.33 513.374 120.676 512.913 120.21C512.459 119.744 511.768 119.511 510.842 119.511C509.882 119.511 509.129 119.722 508.584 120.142C508.038 120.562 507.655 121.011 507.433 121.489L505.524 120.807C505.865 120.011 506.32 119.392 506.888 118.949C507.462 118.5 508.087 118.187 508.763 118.011C509.445 117.83 510.115 117.739 510.774 117.739C511.195 117.739 511.678 117.79 512.223 117.892C512.774 117.989 513.305 118.19 513.817 118.497C514.334 118.804 514.763 119.267 515.104 119.886C515.445 120.506 515.615 121.335 515.615 122.375V131H513.604V129.227H513.501C513.365 129.511 513.138 129.815 512.82 130.139C512.501 130.463 512.078 130.739 511.55 130.966C511.021 131.193 510.376 131.307 509.615 131.307ZM509.922 129.5C510.717 129.5 511.388 129.344 511.933 129.031C512.484 128.719 512.899 128.315 513.178 127.821C513.462 127.327 513.604 126.807 513.604 126.261V124.42C513.518 124.523 513.331 124.616 513.041 124.702C512.757 124.781 512.428 124.852 512.053 124.915C511.683 124.972 511.322 125.023 510.97 125.068C510.624 125.108 510.342 125.142 510.126 125.17C509.604 125.239 509.115 125.349 508.661 125.503C508.212 125.651 507.848 125.875 507.57 126.176C507.297 126.472 507.161 126.875 507.161 127.386C507.161 128.085 507.419 128.614 507.936 128.972C508.459 129.324 509.121 129.5 509.922 129.5ZM521.298 123.125V131H519.286V117.909H521.229V119.955H521.4C521.707 119.29 522.173 118.756 522.798 118.352C523.423 117.943 524.229 117.739 525.218 117.739C526.104 117.739 526.88 117.92 527.545 118.284C528.21 118.642 528.727 119.188 529.096 119.92C529.465 120.648 529.65 121.568 529.65 122.682V131H527.638V122.818C527.638 121.79 527.371 120.989 526.837 120.415C526.303 119.835 525.57 119.545 524.638 119.545C523.996 119.545 523.423 119.685 522.917 119.963C522.417 120.241 522.022 120.648 521.732 121.182C521.442 121.716 521.298 122.364 521.298 123.125ZM539.018 117.909V119.614H532.234V117.909H539.018ZM534.212 114.773H536.223V127.25C536.223 127.818 536.305 128.244 536.47 128.528C536.641 128.807 536.857 128.994 537.118 129.091C537.385 129.182 537.666 129.227 537.962 129.227C538.183 129.227 538.365 129.216 538.507 129.193C538.649 129.165 538.763 129.142 538.848 129.125L539.257 130.932C539.121 130.983 538.93 131.034 538.686 131.085C538.442 131.142 538.132 131.17 537.757 131.17C537.189 131.17 536.632 131.048 536.087 130.804C535.547 130.56 535.098 130.188 534.74 129.688C534.388 129.188 534.212 128.557 534.212 127.795V114.773ZM554.487 117.909V119.614H547.703V117.909H554.487ZM549.68 114.773H551.692V127.25C551.692 127.818 551.774 128.244 551.939 128.528C552.109 128.807 552.325 128.994 552.587 129.091C552.854 129.182 553.135 129.227 553.43 129.227C553.652 129.227 553.834 129.216 553.976 129.193C554.118 129.165 554.232 129.142 554.317 129.125L554.726 130.932C554.589 130.983 554.399 131.034 554.155 131.085C553.911 131.142 553.601 131.17 553.226 131.17C552.658 131.17 552.101 131.048 551.555 130.804C551.016 130.56 550.567 130.188 550.209 129.688C549.857 129.188 549.68 128.557 549.68 127.795V114.773ZM562.69 131.273C561.509 131.273 560.472 130.991 559.58 130.429C558.693 129.866 558 129.08 557.5 128.068C557.006 127.057 556.759 125.875 556.759 124.523C556.759 123.159 557.006 121.969 557.5 120.952C558 119.935 558.693 119.145 559.58 118.582C560.472 118.02 561.509 117.739 562.69 117.739C563.872 117.739 564.906 118.02 565.793 118.582C566.685 119.145 567.378 119.935 567.872 120.952C568.372 121.969 568.622 123.159 568.622 124.523C568.622 125.875 568.372 127.057 567.872 128.068C567.378 129.08 566.685 129.866 565.793 130.429C564.906 130.991 563.872 131.273 562.69 131.273ZM562.69 129.466C563.588 129.466 564.327 129.236 564.906 128.776C565.486 128.315 565.915 127.71 566.193 126.96C566.472 126.21 566.611 125.398 566.611 124.523C566.611 123.648 566.472 122.832 566.193 122.077C565.915 121.321 565.486 120.71 564.906 120.244C564.327 119.778 563.588 119.545 562.69 119.545C561.793 119.545 561.054 119.778 560.474 120.244C559.895 120.71 559.466 121.321 559.188 122.077C558.909 122.832 558.77 123.648 558.77 124.523C558.77 125.398 558.909 126.21 559.188 126.96C559.466 127.71 559.895 128.315 560.474 128.776C561.054 129.236 561.793 129.466 562.69 129.466ZM578.442 131V117.909H580.386V119.955H580.556C580.829 119.256 581.269 118.713 581.877 118.327C582.485 117.935 583.215 117.739 584.067 117.739C584.931 117.739 585.65 117.935 586.224 118.327C586.803 118.713 587.255 119.256 587.579 119.955H587.715C588.05 119.278 588.553 118.741 589.224 118.344C589.894 117.94 590.698 117.739 591.636 117.739C592.806 117.739 593.763 118.105 594.508 118.838C595.252 119.565 595.624 120.699 595.624 122.239V131H593.613V122.239C593.613 121.273 593.349 120.582 592.82 120.168C592.292 119.753 591.67 119.545 590.954 119.545C590.033 119.545 589.32 119.824 588.815 120.381C588.309 120.932 588.056 121.631 588.056 122.477V131H586.011V122.034C586.011 121.29 585.769 120.69 585.286 120.236C584.803 119.776 584.181 119.545 583.42 119.545C582.897 119.545 582.408 119.685 581.954 119.963C581.505 120.241 581.141 120.628 580.863 121.122C580.59 121.611 580.454 122.176 580.454 122.818V131H578.442ZM603.154 131.307C602.325 131.307 601.572 131.151 600.896 130.838C600.219 130.52 599.683 130.062 599.285 129.466C598.887 128.864 598.688 128.136 598.688 127.284C598.688 126.534 598.836 125.926 599.131 125.46C599.427 124.989 599.822 124.619 600.316 124.352C600.81 124.085 601.356 123.886 601.952 123.756C602.555 123.619 603.16 123.511 603.768 123.432C604.563 123.33 605.208 123.253 605.702 123.202C606.202 123.145 606.566 123.051 606.793 122.92C607.026 122.79 607.143 122.562 607.143 122.239V122.17C607.143 121.33 606.913 120.676 606.452 120.21C605.998 119.744 605.308 119.511 604.381 119.511C603.421 119.511 602.668 119.722 602.123 120.142C601.577 120.562 601.194 121.011 600.972 121.489L599.063 120.807C599.404 120.011 599.859 119.392 600.427 118.949C601.001 118.5 601.626 118.187 602.302 118.011C602.984 117.83 603.654 117.739 604.313 117.739C604.734 117.739 605.217 117.79 605.762 117.892C606.313 117.989 606.844 118.19 607.356 118.497C607.873 118.804 608.302 119.267 608.643 119.886C608.984 120.506 609.154 121.335 609.154 122.375V131H607.143V129.227H607.04C606.904 129.511 606.677 129.815 606.359 130.139C606.04 130.463 605.617 130.739 605.089 130.966C604.56 131.193 603.915 131.307 603.154 131.307ZM603.461 129.5C604.256 129.5 604.927 129.344 605.472 129.031C606.023 128.719 606.438 128.315 606.717 127.821C607.001 127.327 607.143 126.807 607.143 126.261V124.42C607.058 124.523 606.87 124.616 606.58 124.702C606.296 124.781 605.967 124.852 605.592 124.915C605.222 124.972 604.862 125.023 604.509 125.068C604.163 125.108 603.881 125.142 603.665 125.17C603.143 125.239 602.654 125.349 602.2 125.503C601.751 125.651 601.387 125.875 601.109 126.176C600.836 126.472 600.7 126.875 600.7 127.386C600.7 128.085 600.958 128.614 601.475 128.972C601.998 129.324 602.66 129.5 603.461 129.5ZM614.837 123.125V131H612.825V117.909H614.768V119.955H614.939C615.246 119.29 615.712 118.756 616.337 118.352C616.962 117.943 617.768 117.739 618.757 117.739C619.643 117.739 620.419 117.92 621.084 118.284C621.749 118.642 622.266 119.188 622.635 119.92C623.004 120.648 623.189 121.568 623.189 122.682V131H621.178V122.818C621.178 121.79 620.911 120.989 620.376 120.415C619.842 119.835 619.109 119.545 618.178 119.545C617.536 119.545 616.962 119.685 616.456 119.963C615.956 120.241 615.561 120.648 615.271 121.182C614.982 121.716 614.837 122.364 614.837 123.125ZM635.114 125.648V117.909H637.126V131H635.114V128.784H634.978C634.671 129.449 634.194 130.014 633.546 130.48C632.898 130.94 632.08 131.17 631.092 131.17C630.273 131.17 629.546 130.991 628.91 130.634C628.273 130.27 627.773 129.724 627.41 128.997C627.046 128.264 626.864 127.341 626.864 126.227V117.909H628.876V126.091C628.876 127.045 629.143 127.807 629.677 128.375C630.217 128.943 630.904 129.227 631.739 129.227C632.239 129.227 632.748 129.099 633.265 128.844C633.788 128.588 634.225 128.196 634.577 127.668C634.935 127.139 635.114 126.466 635.114 125.648ZM644.662 131.307C643.832 131.307 643.08 131.151 642.403 130.838C641.727 130.52 641.19 130.062 640.793 129.466C640.395 128.864 640.196 128.136 640.196 127.284C640.196 126.534 640.344 125.926 640.639 125.46C640.935 124.989 641.33 124.619 641.824 124.352C642.318 124.085 642.864 123.886 643.46 123.756C644.063 123.619 644.668 123.511 645.276 123.432C646.071 123.33 646.716 123.253 647.21 123.202C647.71 123.145 648.074 123.051 648.301 122.92C648.534 122.79 648.651 122.562 648.651 122.239V122.17C648.651 121.33 648.42 120.676 647.96 120.21C647.506 119.744 646.815 119.511 645.889 119.511C644.929 119.511 644.176 119.722 643.631 120.142C643.085 120.562 642.702 121.011 642.48 121.489L640.571 120.807C640.912 120.011 641.366 119.392 641.935 118.949C642.509 118.5 643.134 118.187 643.81 118.011C644.491 117.83 645.162 117.739 645.821 117.739C646.241 117.739 646.724 117.79 647.27 117.892C647.821 117.989 648.352 118.19 648.864 118.497C649.381 118.804 649.81 119.267 650.151 119.886C650.491 120.506 650.662 121.335 650.662 122.375V131H648.651V129.227H648.548C648.412 129.511 648.185 129.815 647.866 130.139C647.548 130.463 647.125 130.739 646.597 130.966C646.068 131.193 645.423 131.307 644.662 131.307ZM644.969 129.5C645.764 129.5 646.435 129.344 646.98 129.031C647.531 128.719 647.946 128.315 648.224 127.821C648.509 127.327 648.651 126.807 648.651 126.261V124.42C648.565 124.523 648.378 124.616 648.088 124.702C647.804 124.781 647.474 124.852 647.099 124.915C646.73 124.972 646.369 125.023 646.017 125.068C645.67 125.108 645.389 125.142 645.173 125.17C644.651 125.239 644.162 125.349 643.707 125.503C643.259 125.651 642.895 125.875 642.616 126.176C642.344 126.472 642.207 126.875 642.207 127.386C642.207 128.085 642.466 128.614 642.983 128.972C643.506 129.324 644.168 129.5 644.969 129.5ZM656.344 113.545V131H654.333V113.545H656.344ZM662.04 113.545V131H660.028V113.545H662.04ZM667.019 135.909C666.678 135.909 666.374 135.881 666.107 135.824C665.84 135.773 665.656 135.722 665.553 135.67L666.065 133.898C666.553 134.023 666.985 134.068 667.36 134.034C667.735 134 668.067 133.832 668.357 133.531C668.653 133.236 668.923 132.756 669.167 132.091L669.542 131.068L664.701 117.909H666.883L670.496 128.341H670.633L674.246 117.909H676.428L670.871 132.909C670.621 133.585 670.312 134.145 669.942 134.588C669.573 135.037 669.144 135.369 668.656 135.585C668.173 135.801 667.627 135.909 667.019 135.909ZM695.106 120.841L693.299 121.352C693.185 121.051 693.018 120.759 692.796 120.474C692.58 120.185 692.285 119.946 691.91 119.759C691.535 119.571 691.055 119.477 690.469 119.477C689.668 119.477 689.001 119.662 688.467 120.031C687.938 120.395 687.674 120.858 687.674 121.42C687.674 121.92 687.856 122.315 688.219 122.605C688.583 122.895 689.151 123.136 689.924 123.33L691.867 123.807C693.038 124.091 693.91 124.526 694.484 125.111C695.058 125.69 695.344 126.437 695.344 127.352C695.344 128.102 695.129 128.773 694.697 129.364C694.271 129.955 693.674 130.42 692.907 130.761C692.14 131.102 691.248 131.273 690.231 131.273C688.896 131.273 687.79 130.983 686.915 130.403C686.04 129.824 685.487 128.977 685.254 127.864L687.163 127.386C687.344 128.091 687.688 128.619 688.194 128.972C688.705 129.324 689.373 129.5 690.197 129.5C691.134 129.5 691.879 129.301 692.43 128.903C692.987 128.5 693.265 128.017 693.265 127.455C693.265 127 693.106 126.619 692.788 126.312C692.469 126 691.981 125.767 691.322 125.614L689.14 125.102C687.941 124.818 687.06 124.378 686.498 123.781C685.941 123.179 685.663 122.426 685.663 121.523C685.663 120.784 685.87 120.131 686.285 119.562C686.705 118.994 687.276 118.548 687.998 118.224C688.725 117.901 689.549 117.739 690.469 117.739C691.765 117.739 692.782 118.023 693.521 118.591C694.265 119.159 694.793 119.909 695.106 120.841ZM703.861 131.273C702.599 131.273 701.511 130.994 700.597 130.438C699.688 129.875 698.986 129.091 698.491 128.085C698.003 127.074 697.759 125.898 697.759 124.557C697.759 123.216 698.003 122.034 698.491 121.011C698.986 119.983 699.673 119.182 700.554 118.608C701.44 118.028 702.474 117.739 703.656 117.739C704.338 117.739 705.011 117.852 705.676 118.08C706.341 118.307 706.946 118.676 707.491 119.188C708.037 119.693 708.472 120.364 708.795 121.199C709.119 122.034 709.281 123.062 709.281 124.284V125.136H699.19V123.398H707.236C707.236 122.659 707.088 122 706.793 121.42C706.503 120.841 706.088 120.384 705.548 120.048C705.014 119.713 704.384 119.545 703.656 119.545C702.855 119.545 702.162 119.744 701.577 120.142C700.997 120.534 700.551 121.045 700.239 121.676C699.926 122.307 699.77 122.983 699.77 123.705V124.864C699.77 125.852 699.94 126.69 700.281 127.378C700.628 128.06 701.108 128.58 701.722 128.938C702.335 129.29 703.048 129.466 703.861 129.466C704.389 129.466 704.866 129.392 705.293 129.244C705.724 129.091 706.097 128.864 706.409 128.562C706.722 128.256 706.963 127.875 707.134 127.42L709.077 127.966C708.872 128.625 708.528 129.205 708.045 129.705C707.563 130.199 706.966 130.585 706.256 130.864C705.545 131.136 704.747 131.273 703.861 131.273ZM718.034 117.909V119.614H711.25V117.909H718.034ZM713.227 114.773H715.239V127.25C715.239 127.818 715.321 128.244 715.486 128.528C715.656 128.807 715.872 128.994 716.134 129.091C716.401 129.182 716.682 129.227 716.977 129.227C717.199 129.227 717.381 129.216 717.523 129.193C717.665 129.165 717.778 129.142 717.864 129.125L718.273 130.932C718.136 130.983 717.946 131.034 717.702 131.085C717.457 131.142 717.148 131.17 716.773 131.17C716.205 131.17 715.648 131.048 715.102 130.804C714.563 130.56 714.114 130.188 713.756 129.688C713.403 129.188 713.227 128.557 713.227 127.795V114.773ZM736.06 125.648V117.909H738.071V131H736.06V128.784H735.923C735.616 129.449 735.139 130.014 734.491 130.48C733.844 130.94 733.026 131.17 732.037 131.17C731.219 131.17 730.491 130.991 729.855 130.634C729.219 130.27 728.719 129.724 728.355 128.997C727.991 128.264 727.81 127.341 727.81 126.227V117.909H729.821V126.091C729.821 127.045 730.088 127.807 730.622 128.375C731.162 128.943 731.849 129.227 732.685 129.227C733.185 129.227 733.693 129.099 734.21 128.844C734.733 128.588 735.17 128.196 735.523 127.668C735.881 127.139 736.06 126.466 736.06 125.648ZM741.755 135.909V117.909H743.698V119.989H743.937C744.085 119.761 744.289 119.472 744.55 119.119C744.817 118.761 745.198 118.443 745.692 118.165C746.192 117.881 746.869 117.739 747.721 117.739C748.823 117.739 749.795 118.014 750.636 118.565C751.477 119.116 752.133 119.898 752.604 120.909C753.076 121.92 753.312 123.114 753.312 124.489C753.312 125.875 753.076 127.077 752.604 128.094C752.133 129.105 751.479 129.889 750.644 130.446C749.809 130.997 748.846 131.273 747.755 131.273C746.914 131.273 746.241 131.134 745.735 130.855C745.229 130.571 744.84 130.25 744.567 129.892C744.295 129.528 744.085 129.227 743.937 128.989H743.766V135.909H741.755ZM743.732 124.455C743.732 125.443 743.877 126.315 744.167 127.071C744.457 127.821 744.88 128.409 745.437 128.835C745.994 129.256 746.675 129.466 747.482 129.466C748.323 129.466 749.025 129.244 749.587 128.801C750.156 128.352 750.582 127.75 750.866 126.994C751.156 126.233 751.3 125.386 751.3 124.455C751.3 123.534 751.158 122.705 750.874 121.966C750.596 121.222 750.173 120.634 749.604 120.202C749.042 119.764 748.335 119.545 747.482 119.545C746.664 119.545 745.977 119.753 745.42 120.168C744.863 120.577 744.442 121.151 744.158 121.889C743.874 122.622 743.732 123.477 743.732 124.455ZM384.659 146.909C384.557 146.045 384.142 145.375 383.415 144.898C382.688 144.42 381.795 144.182 380.739 144.182C379.966 144.182 379.29 144.307 378.71 144.557C378.136 144.807 377.688 145.151 377.364 145.588C377.045 146.026 376.886 146.523 376.886 147.08C376.886 147.545 376.997 147.946 377.219 148.281C377.446 148.611 377.736 148.886 378.088 149.108C378.44 149.324 378.81 149.503 379.196 149.645C379.582 149.781 379.938 149.892 380.261 149.977L382.034 150.455C382.489 150.574 382.994 150.739 383.551 150.949C384.114 151.159 384.651 151.446 385.162 151.81C385.679 152.168 386.105 152.628 386.44 153.19C386.776 153.753 386.943 154.443 386.943 155.261C386.943 156.205 386.696 157.057 386.202 157.818C385.713 158.58 384.997 159.185 384.054 159.634C383.116 160.082 381.977 160.307 380.636 160.307C379.386 160.307 378.304 160.105 377.389 159.702C376.48 159.298 375.764 158.736 375.241 158.014C374.724 157.293 374.432 156.455 374.364 155.5H376.545C376.602 156.159 376.824 156.705 377.21 157.136C377.602 157.562 378.097 157.881 378.693 158.091C379.295 158.295 379.943 158.398 380.636 158.398C381.443 158.398 382.168 158.267 382.81 158.006C383.452 157.739 383.96 157.369 384.335 156.898C384.71 156.42 384.898 155.864 384.898 155.227C384.898 154.648 384.736 154.176 384.412 153.812C384.088 153.449 383.662 153.153 383.134 152.926C382.605 152.699 382.034 152.5 381.42 152.33L379.273 151.716C377.909 151.324 376.83 150.764 376.034 150.037C375.239 149.31 374.841 148.358 374.841 147.182C374.841 146.205 375.105 145.352 375.634 144.625C376.168 143.892 376.884 143.324 377.781 142.92C378.685 142.511 379.693 142.307 380.807 142.307C381.932 142.307 382.932 142.509 383.807 142.912C384.682 143.31 385.375 143.855 385.886 144.548C386.403 145.241 386.676 146.028 386.705 146.909H384.659ZM399.964 146.909C399.862 146.045 399.447 145.375 398.719 144.898C397.992 144.42 397.1 144.182 396.043 144.182C395.271 144.182 394.594 144.307 394.015 144.557C393.441 144.807 392.992 145.151 392.668 145.588C392.35 146.026 392.191 146.523 392.191 147.08C392.191 147.545 392.302 147.946 392.523 148.281C392.751 148.611 393.04 148.886 393.393 149.108C393.745 149.324 394.114 149.503 394.501 149.645C394.887 149.781 395.242 149.892 395.566 149.977L397.339 150.455C397.793 150.574 398.299 150.739 398.856 150.949C399.418 151.159 399.955 151.446 400.467 151.81C400.984 152.168 401.41 152.628 401.745 153.19C402.08 153.753 402.248 154.443 402.248 155.261C402.248 156.205 402.001 157.057 401.506 157.818C401.018 158.58 400.302 159.185 399.359 159.634C398.421 160.082 397.282 160.307 395.941 160.307C394.691 160.307 393.609 160.105 392.694 159.702C391.785 159.298 391.069 158.736 390.546 158.014C390.029 157.293 389.737 156.455 389.668 155.5H391.85C391.907 156.159 392.129 156.705 392.515 157.136C392.907 157.562 393.401 157.881 393.998 158.091C394.6 158.295 395.248 158.398 395.941 158.398C396.748 158.398 397.472 158.267 398.114 158.006C398.756 157.739 399.265 157.369 399.64 156.898C400.015 156.42 400.202 155.864 400.202 155.227C400.202 154.648 400.04 154.176 399.717 153.812C399.393 153.449 398.967 153.153 398.438 152.926C397.91 152.699 397.339 152.5 396.725 152.33L394.577 151.716C393.214 151.324 392.134 150.764 391.339 150.037C390.543 149.31 390.146 148.358 390.146 147.182C390.146 146.205 390.41 145.352 390.938 144.625C391.472 143.892 392.188 143.324 393.086 142.92C393.989 142.511 394.998 142.307 396.112 142.307C397.237 142.307 398.237 142.509 399.112 142.912C399.987 143.31 400.68 143.855 401.191 144.548C401.708 145.241 401.981 146.028 402.009 146.909H399.964ZM405.723 160V142.545H407.837V150.318H417.143V142.545H419.257V160H417.143V152.193H407.837V160H405.723ZM431.841 155.227L431.807 152.739H432.216L437.943 146.909H440.432L434.33 153.08H434.159L431.841 155.227ZM429.966 160V142.545H431.977V160H429.966ZM438.284 160L433.17 153.523L434.602 152.125L440.841 160H438.284ZM447.97 160.273C446.709 160.273 445.621 159.994 444.706 159.438C443.797 158.875 443.095 158.091 442.601 157.085C442.112 156.074 441.868 154.898 441.868 153.557C441.868 152.216 442.112 151.034 442.601 150.011C443.095 148.983 443.783 148.182 444.663 147.608C445.55 147.028 446.584 146.739 447.766 146.739C448.447 146.739 449.121 146.852 449.786 147.08C450.45 147.307 451.055 147.676 451.601 148.188C452.146 148.693 452.581 149.364 452.905 150.199C453.229 151.034 453.391 152.062 453.391 153.284V154.136H443.3V152.398H451.345C451.345 151.659 451.197 151 450.902 150.42C450.612 149.841 450.197 149.384 449.658 149.048C449.124 148.713 448.493 148.545 447.766 148.545C446.964 148.545 446.271 148.744 445.686 149.142C445.107 149.534 444.661 150.045 444.348 150.676C444.036 151.307 443.879 151.983 443.879 152.705V153.864C443.879 154.852 444.05 155.69 444.391 156.378C444.737 157.06 445.217 157.58 445.831 157.938C446.445 158.29 447.158 158.466 447.97 158.466C448.499 158.466 448.976 158.392 449.402 158.244C449.834 158.091 450.206 157.864 450.518 157.562C450.831 157.256 451.072 156.875 451.243 156.42L453.186 156.966C452.982 157.625 452.638 158.205 452.155 158.705C451.672 159.199 451.075 159.585 450.365 159.864C449.655 160.136 448.857 160.273 447.97 160.273ZM457.347 164.909C457.006 164.909 456.702 164.881 456.435 164.824C456.168 164.773 455.984 164.722 455.881 164.67L456.393 162.898C456.881 163.023 457.313 163.068 457.688 163.034C458.063 163 458.396 162.832 458.685 162.531C458.981 162.236 459.251 161.756 459.495 161.091L459.87 160.068L455.029 146.909H457.211L460.825 157.341H460.961L464.575 146.909H466.756L461.2 161.909C460.95 162.585 460.64 163.145 460.271 163.588C459.901 164.037 459.472 164.369 458.984 164.585C458.501 164.801 457.955 164.909 457.347 164.909ZM478.684 149.841L476.877 150.352C476.763 150.051 476.596 149.759 476.374 149.474C476.158 149.185 475.863 148.946 475.488 148.759C475.113 148.571 474.633 148.477 474.048 148.477C473.246 148.477 472.579 148.662 472.045 149.031C471.516 149.395 471.252 149.858 471.252 150.42C471.252 150.92 471.434 151.315 471.798 151.605C472.161 151.895 472.729 152.136 473.502 152.33L475.445 152.807C476.616 153.091 477.488 153.526 478.062 154.111C478.636 154.69 478.923 155.437 478.923 156.352C478.923 157.102 478.707 157.773 478.275 158.364C477.849 158.955 477.252 159.42 476.485 159.761C475.718 160.102 474.826 160.273 473.809 160.273C472.474 160.273 471.369 159.983 470.494 159.403C469.619 158.824 469.065 157.977 468.832 156.864L470.741 156.386C470.923 157.091 471.266 157.619 471.772 157.972C472.283 158.324 472.951 158.5 473.775 158.5C474.712 158.5 475.457 158.301 476.008 157.903C476.565 157.5 476.843 157.017 476.843 156.455C476.843 156 476.684 155.619 476.366 155.312C476.048 155 475.559 154.767 474.9 154.614L472.718 154.102C471.519 153.818 470.638 153.378 470.076 152.781C469.519 152.179 469.241 151.426 469.241 150.523C469.241 149.784 469.448 149.131 469.863 148.562C470.283 147.994 470.854 147.548 471.576 147.224C472.303 146.901 473.127 146.739 474.048 146.739C475.343 146.739 476.36 147.023 477.099 147.591C477.843 148.159 478.371 148.909 478.684 149.841ZM483.416 160.136C482.996 160.136 482.635 159.986 482.334 159.685C482.033 159.384 481.882 159.023 481.882 158.602C481.882 158.182 482.033 157.821 482.334 157.52C482.635 157.219 482.996 157.068 483.416 157.068C483.837 157.068 484.197 157.219 484.499 157.52C484.8 157.821 484.95 158.182 484.95 158.602C484.95 158.881 484.879 159.136 484.737 159.369C484.601 159.602 484.416 159.79 484.183 159.932C483.956 160.068 483.7 160.136 483.416 160.136Z" fill="black"/>
</svg>
